<svg id="Layer_1" data-name="Layer 1" xmlns="http://www.w3.org/2000/svg" viewBox="0 0 1325.37 475.46"><defs><style>.cls-1{fill:#d05c3d;}.cls-2{fill:#f6dfb6;}</style></defs><path class="cls-1" d="M671.92,136c-4.43-3.66-28.51-35.63-33.32-40.44-6.36-6.36-11-8.48-22.35-13.1,27.93-1.35,41.81-14.64,41.81-35.64C658.06,22.71,640.34,10,607.2,10H555.39c-1.54,0-2.31.77-2.31,2.51s.77,2.5,2.31,2.5h1.17c7.88,0,10.2,3.66,10.2,15.79v97.27c0,12.13-2.7,15.79-11.37,15.79h-.77c-1.34,0-2.12.77-2.12,2.5s.78,2.51,2.12,2.51h37.75c1.35,0,1.93-.77,1.93-2.51s-.58-2.5-1.93-2.5h-.77c-8.67,0-11.74-2.89-11.74-15.79V82.23c3.27-.19,6-.19,8.08-.19,6,0,12.71,1.54,17.54,4.43,6.35,2.89,10.39,7.13,22.53,20.22l12.13,12.51,10.4,11.38c11.36,12.12,19.64,18.29,26.78,18.29h6.73c3.66,0,4.82-.77,4.82-3.08C688.87,142.12,681.16,144.63,671.92,136ZM579.86,65.27V27.52c0-11.35,1.73-12.51,15-12.51,32.56,0,48.93,10.59,48.93,31.77,0,17.54-15.79,30.44-36.6,30.44C584.87,77.22,579.86,78.38,579.86,65.27Z" transform="translate(-10 -10)"/><path class="cls-1" d="M727.6,58.73c-25.23,0-43.72,19.65-43.72,46,0,1.35.2,2.5.2,3.85,2.12,25.43,19.84,43,43.72,43,26.19,0,44.49-18.88,44.49-45.64C772.29,78.77,753.23,58.73,727.6,58.73Zm2.13,87.45c-18.49,0-32.17-17-32.17-45.85,0-21.76,10.79-35.83,28.31-35.83,19.64,0,32.55,18.31,32.55,46.24C758.42,132.88,747.45,146.18,729.73,146.18Z" transform="translate(-10 -10)"/><path class="cls-1" d="M861.55,140.2c-2.11,0-2.89,3.09-5.4,3.09-3.27,0-3.84-1.74-3.84-9.25V83.58c0-16.76-9.25-25-27.74-25-20.61,0-38.14,11.36-38.14,25,0,4.42,3.09,8.08,7.13,8.08a7,7,0,0,0,6.94-7.31c0-2.69,0-1.16-1.54-5.4a7.47,7.47,0,0,1-.77-3.46c0-6.74,13.48-11.56,22.72-11.56,13.29,0,20,6.35,20,19.26V94.75l-8.47,2.69L819,101.1c-28.31,7.71-38,13.29-38,28.7,0,13.87,10,22,27,22,11.75,0,23.69-3.48,32-11.75.57,8.27,3.28,11.55,9.24,11.55,4.24,0,14.45-4.43,14.45-9.44C863.67,140.78,862.9,140.2,861.55,140.2Zm-20.61-22.73c0,19.84-11.55,28.32-27.93,28.32-11.74,0-19.06-6.56-19.06-16.76,0-12.33,10-17.14,26-22.34l21-6.93Z" transform="translate(-10 -10)"/><path class="cls-1" d="M872.71,148.87h30.62c1.17,0,1.74-.77,1.74-2.13,0-1-.77-1.53-2.12-1.92h-2.51c-5.58,0-7.12-4.24-7.12-16.75V93.2c9.24-17.14,18.49-24.84,29.85-24.84,12.33,0,18.69,6,18.69,26.57V132.3c-.58,6.93-.2,11.94-6.16,12.52h-1.94c-1.33.19-1.92,1-1.92,1.92,0,1.36.59,2.13,1.74,2.13h28.88c1.17,0,1.74-.77,1.74-2.13,0-1-.57-1.53-1.93-1.92h-1.92c-6-.58-7.51-3.66-7.51-16.75V94.55c8.67-16.75,17.9-26.39,31.58-26.39,12.53,0,18.69,8.1,18.49,24.08l-.18,40.06-.2,5.21c-.2,4.42-2.31,7.31-5.2,7.31h-4c-1.35.39-1.94,1-1.94,1.92,0,1.36.59,2.13,1.74,2.13h29.47c1.15,0,1.73-.77,1.73-2.13,0-1-.77-1.53-2.12-1.92h-2.89c-5.78,0-5.39-8.28-5.39-16.75V90.12c0-22.73-10.21-31.58-24.84-31.58-13.87,0-24.66,7.51-36.41,26.57C950.53,66.44,941.28,58.54,928,58.54c-12.9,0-24.46,8.67-34.86,25.8V61.43c0-1.36-1-2.12-2.69-2.12-.59,0-9.44,7.13-15.42,9-2.5.77-3.07,1.35-3.07,2.89,0,1,.18,1.35,1.73,1.54,7.7.58,8.86,3.47,8.86,15v40.05c0,14.45-1.74,16.37-6.17,16.95H872.9c-1.15.39-1.72,1-1.72,1.92C871.18,148.1,871.75,148.87,872.71,148.87Z" transform="translate(-10 -10)"/><path class="cls-1" d="M554.62,315.72h30.82c1.35,0,2.12-.76,2.12-2.5s-.77-2.51-2.12-2.51h-.77c-9.82,0-12.71-3.65-12.71-15.21l.58-95.34,66.65,113.26c.95,2.11,1.53,2.3,3.07,2.3,2.31,0,2.31,0,3.66-2.3L708.7,197.09v97.84c0,11.56-2.3,15.78-9.23,15.78h-.59c-1.35,0-2.12.77-2.12,2.51s.77,2.5,2.12,2.5h34.68c1.35,0,1.92-.76,1.92-2.5s-.57-2.51-1.92-2.51h-1c-8.29,0-10.59-3.45-10.59-15.78V197.66c0-12.13,2.69-15.79,11.17-15.79h.77c1.35,0,1.92-.77,1.92-2.51s-.57-2.5-1.92-2.5H717c-4.43,0-3.08.58-5.78,4.24l-1.92,3.08-62.4,116.13L577.15,181.87c-2.88-5-1.72-5-7.5-5H555c-1.34,0-2.11.77-2.11,2.5s.77,2.51,2.11,2.51h1.55c7.12,0,9.82,4.23,9.82,15.79v97.27c0,11.56-2.7,15.78-11,15.78h-.77c-1.34,0-2.12.77-2.12,2.51S553.28,315.72,554.62,315.72Z" transform="translate(-10 -10)"/><path class="cls-1" d="M762.7,190.72c-4.63,0-8.48,3.86-8.48,9.06a8.77,8.77,0,0,0,8.86,8.48,8.47,8.47,0,0,0,8.47-8.67A8.72,8.72,0,0,0,762.7,190.72Z" transform="translate(-10 -10)"/><path class="cls-1" d="M769.63,228.29c0-1.36-1-2.12-3.09-2.12-.57,0-9.43,7.13-15.4,9.05-2.12.58-3.27,1.54-3.27,2.89,0,1,.57,1.35,1.92,1.53,7.7.59,8.87,3.48,8.87,15V298c0,7.13-.59,13.1-7.9,13.68h-1.94c-1.15.39-1.72,1-1.72,1.92,0,1.36.57,2.12,1.54,2.12h30.81c1.16,0,1.74-.76,1.74-2.12,0-1-.77-1.53-2.12-1.92h-1.74c-7.13-.58-7.7-5.39-7.7-16.75Z" transform="translate(-10 -10)"/><path class="cls-1" d="M852.4,303.2a47.07,47.07,0,0,0-13.28,1.94l-13.88,3.07c-3.84.77-9.62,1.94-13.28,1.94-8.48,0-13.48-4.44-13.48-11.56,0-5.4,2.49-9.44,8.67-14.26a34.85,34.85,0,0,0,19.44,5.78c18.31,0,32.36-14.05,32.36-32.74a33,33,0,0,0-8.86-22.92c2.51-1.35,4.24-1.92,5.2-1.92,3.09,0,9.25,6.55,12.52,6.55s5.58-2.12,5.58-5.78c0-4.63-4-8.1-9.23-8.1-4.83,0-8.67,1.15-17,6.36-7.51-4.62-12.71-6-19.84-6-18.67,0-33.12,14.07-33.12,32.76,0,9.05,2.69,15.6,9.82,23.1-9,6.36-12.53,11.94-12.53,19.65,0,6.74,2.71,10.78,9.64,15.22-11.56,10.21-13.48,13.67-13.48,21.76,0,12.9,10.21,19.26,30.43,19.26,31.39,0,54.7-13.48,54.7-31.2C872.82,312.25,864.73,303.2,852.4,303.2Zm-46.8-46.6c0-16,8.28-26.39,20.61-26.39,13.09,0,21.19,11.76,21.19,30.43,0,15.42-7.9,25-20.42,25s-20.61-10-21.38-27Zm15.6,95.91c-16,0-23.89-5.77-23.89-17.14,0-7.12,2.51-11.56,8.87-17.52a74.2,74.2,0,0,0,11.36,1,65.52,65.52,0,0,0,8.87-.59l11.16-1.54c2.89-.19,5.39-.38,7.9-.38,9.82,0,14.64,4.23,14.64,12.9C860.11,342.5,843.73,352.51,821.2,352.51Z" transform="translate(-10 -10)"/><path class="cls-1" d="M933.22,225.4c-8.28,0-17.52,7.51-27.93,22.73V228.29c0-1.36-1-2.12-2.89-2.12-.38,0-9.82,7.13-15.41,9.05-2.31.77-3.28,1.35-3.28,2.89,0,1,.59,1.35,1.94,1.53,7.7.59,8.85,3.48,8.85,15v40.25c0,16.37-1.92,15.78-9,16.75H884.1c-1.15.39-1.72,1-1.72,1.92,0,1.36.57,2.12,1.53,2.12H915.7c.95,0,1.54-.76,1.54-2.12,0-1-.59-1.53-1.74-1.92h-1.92c-6.94-.58-8.1-3.47-8.1-16.75V269.51c0-16,3.27-19.66,10.4-27.36,4-4.43,7.13-6.55,9.64-6.55,2.89,0,4,1,7.12,6.17,1.73,2.88,3.85,4.24,6,4.24,4.43,0,8.47-3.66,8.47-8.1C947.08,231.56,940.15,225.4,933.22,225.4Z" transform="translate(-10 -10)"/><path class="cls-1" d="M1031.76,307.06c-2.1,0-2.89,3.09-5.39,3.09-3.28,0-3.84-1.74-3.84-9.25V250.44c0-16.76-9.26-25-27.75-25-20.61,0-38.13,11.36-38.13,25,0,4.42,3.09,8.08,7.13,8.08a7,7,0,0,0,6.93-7.31c0-2.7,0-1.16-1.53-5.4a7.38,7.38,0,0,1-.77-3.46c0-6.75,13.48-11.56,22.72-11.56,13.29,0,20,6.35,20,19.26v11.56l-8.47,2.69L989.2,268c-28.31,7.7-37.94,13.29-37.94,28.69,0,13.88,10,22,27,22,11.74,0,23.68-3.48,32-11.75.57,8.27,3.27,11.55,9.24,11.55,4.24,0,14.44-4.43,14.44-9.44C1033.88,307.64,1033.12,307.06,1031.76,307.06Zm-20.61-22.73c0,19.84-11.54,28.31-27.92,28.31-11.75,0-19.06-6.55-19.06-16.75,0-12.33,10-17.14,26-22.34l21-6.93Z" transform="translate(-10 -10)"/><path class="cls-1" d="M1095.28,299.54c-.77,0-1.34.39-4.43,2.89-6,5.21-11.94,7.71-17.91,7.71-12.32,0-15.6-6.36-15.6-24.65V233.87h27.55c3.07,0,4-.57,4-2.69,0-2.51-.58-2.89-3.86-2.89h-27.73V208.64c0-2.89-.2-2.89-1-2.89-2.51,0-5,8.67-9.64,14.25-5.58,7.52-11.54,9.82-11.54,11.94,0,1.36,1.15,1.93,3.65,1.93h7.32v51.81c0,21.58,3.46,25.42,11.17,30a21.9,21.9,0,0,0,11.16,2.89c7.52,0,15.8-3.85,24.66-11.35,2.89-2.51,4.44-4.25,4.44-5.21A2.53,2.53,0,0,0,1095.28,299.54Z" transform="translate(-10 -10)"/><path class="cls-1" d="M1134.41,311.68h-1.74c-7.13-.58-7.7-5.39-7.7-16.75V228.29c0-1.36-1-2.12-3.09-2.12-.57,0-9.44,7.13-15.4,9.05-2.12.58-3.27,1.54-3.27,2.89,0,1,.57,1.35,1.92,1.53,7.7.59,8.87,3.48,8.87,15V298c0,7.13-.59,13.1-7.9,13.68h-1.94c-1.15.39-1.72,1-1.72,1.92,0,1.36.57,2.12,1.53,2.12h30.82c1.15,0,1.74-.76,1.74-2.12C1136.53,312.64,1135.76,312.07,1134.41,311.68Z" transform="translate(-10 -10)"/><path class="cls-1" d="M1118.42,208.26a8.47,8.47,0,0,0,8.47-8.67,8.72,8.72,0,0,0-8.85-8.87c-4.63,0-8.49,3.86-8.49,9.06A8.78,8.78,0,0,0,1118.42,208.26Z" transform="translate(-10 -10)"/><path class="cls-1" d="M1185.55,225.58c-25.24,0-43.72,19.66-43.72,46,0,1.35.19,2.5.19,3.85,2.12,25.43,19.85,42.95,43.73,42.95,26.19,0,44.48-18.88,44.48-45.64C1230.23,245.62,1211.17,225.58,1185.55,225.58Zm2.12,87.46c-18.49,0-32.17-17-32.17-45.85,0-21.76,10.79-35.83,28.32-35.83,19.64,0,32.55,18.31,32.55,46.23C1216.37,299.74,1205.39,313,1187.67,313Z" transform="translate(-10 -10)"/><path class="cls-1" d="M1333.25,311.68h-2.51c-4.81,0-7.11-3.85-6.93-11.75l.2-5-.2-37.18c0-12.9-1-16.57-4.61-21.76-4.83-6.75-13.3-10.41-21.77-10.41-12.9,0-24.08,6.95-38.91,26.39V228.29c0-1.36-1-2.12-2.69-2.12-.39,0-9.44,7.13-15.42,9.05-2.5.77-3.07,1.35-3.07,2.89,0,1,.57,1.35,1.74,1.53,7.7.59,8.85,3.48,8.85,15v44.48c-.58,7.13.58,11.55-7.52,12.52h-2.12c-1.15.39-1.72,1-1.72,1.92,0,1.36.57,2.12,1.54,2.12H1268c1.15,0,1.73-.76,1.73-2.12,0-1-.58-1.53-1.92-1.92h-2.5c-4.81,0-6.37-3.85-6.37-16.75V261.41c9.06-15.22,19.65-26,34.29-26,12.13,0,19.65,5.6,19.65,23.7v35.83c0,8.08.2,16.17-7.7,16.75h-1.74c-1.35.19-1.92,1-1.92,1.92,0,1.36.57,2.12,1.72,2.12h30.43c1.17,0,1.74-.76,1.74-2.12C1335.37,312.64,1334.6,312.07,1333.25,311.68Z" transform="translate(-10 -10)"/><path class="cls-1" d="M670.77,452.52c-1.17,0-2.32.77-3.66,2.51-12.91,15.6-32.75,22-64.14,22-12.52,0-17.53-1.17-20.42-4.24-2.31-2.89-2.89-6.93-2.89-20.23l-.19-88c0-11.74,2.7-15.78,11-15.78h1c1.34,0,2.12-.77,2.12-2.51s-.78-2.51-2.12-2.51h-36.8a2.25,2.25,0,0,0-2.12,2.51c0,1.74.78,2.51,2.12,2.51h1.16c7.51,0,10.21,4.22,10.21,15.78l.19,90.14v7.13c0,12.33-1.74,15.79-9.24,15.79h-2.12c-1.35,0-2.12.77-2.12,2.51s.77,2.5,2.12,2.5h91.87c7.9,0,11-1.54,15-7.13,4-5,11-15.79,11-20.61C672.69,453.29,672.11,452.52,670.77,452.52Z" transform="translate(-10 -10)"/><path class="cls-1" d="M762.31,473.9c-2.11,0-2.89,3.09-5.4,3.09-3.27,0-3.84-1.73-3.84-9.25V417.28c0-16.75-9.25-25-27.74-25-20.62,0-38.14,11.36-38.14,25,0,4.43,3.09,8.09,7.13,8.09a7,7,0,0,0,6.94-7.32c0-2.69,0-1.15-1.54-5.39a7.4,7.4,0,0,1-.77-3.46c0-6.75,13.48-11.56,22.72-11.56,13.29,0,20,6.35,20,19.26v11.56l-8.47,2.69-13.47,3.65c-28.32,7.71-38,13.3-38,28.7,0,13.88,10,22,27,22,11.74,0,23.69-3.47,32-11.74.57,8.27,3.27,11.54,9.24,11.54,4.24,0,14.45-4.42,14.45-9.43C764.43,474.49,763.66,473.9,762.31,473.9Zm-20.62-22.73c0,19.85-11.54,28.32-27.92,28.32-11.75,0-19.06-6.55-19.06-16.76,0-12.33,10-17.14,26-22.33l21-6.93Z" transform="translate(-10 -10)"/><path class="cls-1" d="M888.16,395.13H866c-1.35,0-1.93.77-1.93,2.12,0,1,.78,1.54,2.12,1.73h1.93c4.81.58,7.12,2.12,7.12,4.82,0,1.54-1,3.27-4,12.13l-21.57,51.42L829,415.93c-2.12-5.4-4-10.79-4-12.33,0-2.5,1.92-4,5.58-4.62h1.92c1.35-.19,1.94-.77,1.94-1.73,0-1.35-.59-2.12-1.74-2.12H804.18c-1.15,0-1.74.77-1.74,2.12,0,1,.78,1.54,2.12,1.73h1.74c4,.58,5.19,5.39,10.79,16.95l6,14.45-15.6,37.36-22.73-56L783,406.49a8.08,8.08,0,0,1-1.16-4c0-1.92,1.16-3.08,3.46-3.47h1.54c1.35-.19,2.12-.77,2.12-1.73,0-1.35-.57-2.12-1.73-2.12H762.77a1.84,1.84,0,0,0-1.73,2.12c0,1,.58,1.54,1.92,1.73h1.93c1.54.39,3.46,2.89,5.58,7.51l3.86,9.44,26.57,64.52c1,2.32,2.32,4,3.09,4s1.54-.57,3.08-4.42l18.1-43.33,19.26,46.6c.39.58.77,1,1.35,1,2.12,0,1.74-.2,3.28-4.24l26.57-64.14c5.6-11.18,6.75-15.79,10.41-16.95H888c1.15-.19,1.74-.77,1.74-1.73C889.7,395.9,889.11,395.13,888.16,395.13Z" transform="translate(-10 -10)"/><path class="cls-1" d="M10,10V482.56H482.57V10ZM435.23,443.23C85.81,452.56,66.19,263.17,61,216.06c-.19-1.8-.65-1.64-.65-1.64-.35,0-.23,1.65-.23,1.65C72.74,399.2,225.62,444.42,225.62,444.42H57.33V208.92s59.76,4.78,58.85-14.37-58.85-15.92-58.85-15.92V48.14h149c59.89,0,122.47,2.75,175.62,33.75a124.26,124.26,0,0,1,29.56,23.71,93.8,93.8,0,0,1,19.83,33.24c15.29,46.13-16.91,84.85-56.63,103.73C294,280.94,185.93,274.14,106.16,237a253.45,253.45,0,0,1-41.48-24.11c-1.4-1-1.61-.7-1.61-.7-.21.27,1,1.3,1,1.3,171.49,137.93,371.12,30.75,371.12,30.75Z" transform="translate(-10 -10)"/><path class="cls-2" d="M435.23,244.26v199C85.81,452.56,66.19,263.17,61,216.06c-.19-1.8-.65-1.64-.65-1.64-.35,0-.23,1.65-.23,1.65C72.74,399.2,225.62,444.42,225.62,444.42H57.33V208.92s59.76,4.78,58.85-14.37-58.85-15.92-58.85-15.92V48.14h149c59.89,0,122.47,2.75,175.62,33.75a124.26,124.26,0,0,1,29.56,23.71,93.8,93.8,0,0,1,19.83,33.24c15.29,46.13-16.91,84.85-56.63,103.73C294,280.94,185.93,274.14,106.16,237a253.45,253.45,0,0,1-41.48-24.11c-1.4-1-1.61-.7-1.61-.7-.21.27,1,1.3,1,1.3C235.6,351.44,435.23,244.26,435.23,244.26Z" transform="translate(-10 -10)"/></svg>